<?xml version="1.0" standalone="no"?><!DOCTYPE svg PUBLIC "-//W3C//DTD SVG 1.1//EN" "http://www.w3.org/Graphics/SVG/1.1/DTD/svg11.dtd"><svg class="icon" width="200px" height="200.00px" viewBox="0 0 1024 1024" version="1.1" xmlns="http://www.w3.org/2000/svg"><path fill="#cdcdcd" d="M506.51559 405.190369c-73.123414 0-132.432195 58.953693-132.432195 131.673925s59.308781 131.675972 132.432195 131.675972c73.14695 0 132.455731-58.95574 132.455731-131.675972S579.663564 405.190369 506.51559 405.190369zM934.574806 299.197336c0-25.916253-21.170159-46.944172-47.254234-46.944172L721.921545 252.253164l-23.638373-46.993291c0 0-21.147646-46.992267-47.231721-46.992267L367.48614 158.267607c-26.083052 0-47.229674 46.992267-47.229674 46.992267l-23.638373 46.993291L131.217019 252.253164c-26.082028 0-47.25321 21.027919-47.25321 46.944172l0 516.868891c0 25.963325 21.171182 46.993291 47.25321 46.993291l756.103554 0c26.083052 0 47.254234-21.029966 47.254234-46.993291l0-65.789379-0.403183 10.016121 0.403183-170.120562L934.574806 299.197336zM506.51559 712.443172c-97.496521 0-176.554088-78.651314-176.554088-175.578878 0-96.973612 79.057567-175.579901 176.554088-175.579901 97.522104 0 176.576601 78.606289 176.576601 175.579901C683.092191 633.791857 604.037694 712.443172 506.51559 712.443172zM786.096147 397.739676c-20.148899 0-36.455283-16.32992-36.455283-36.455283 0-20.125363 16.306384-36.455283 36.455283-36.455283 20.126386 0 36.455283 16.32992 36.455283 36.455283C822.55143 381.409756 806.222533 397.739676 786.096147 397.739676z" /></svg>